<svg width="38" height="33" viewBox="0 0 38 33" fill="none" xmlns="http://www.w3.org/2000/svg">
<g id="Group 45137">
<g id="Subtract">
<path fill-rule="evenodd" clip-rule="evenodd" d="M22.6406 0.710503C23.2417 0.587682 23.8682 0.747334 24.3242 1.13952L37.1806 12.1975C37.7125 12.6551 37.9304 13.3573 37.7448 14.0162L33.7515 28.1896C33.5659 28.8485 33.008 29.353 32.3068 29.4963L15.3592 32.9593C14.7582 33.0822 14.1317 32.9225 13.6757 32.5303L0.819282 21.4723C0.287337 21.0148 0.0694963 20.3125 0.255128 19.6536L4.24836 5.48025C4.43399 4.82138 4.99185 4.3168 5.69307 4.17351L22.6406 0.710503ZM14.1952 10.2806L5.63475 11.5944L10.0803 14.6474L13.6994 14.092L12.1636 13.0373L24.2736 11.1787L17.795 19.7115L21.066 19.2094L29.6458 7.90929L21.155 9.21244L20.4811 5.24102L17.9756 5.62556L18.6495 9.59697L16.5615 9.91742L15.8877 5.946L13.5213 6.30918L14.1952 10.2806ZM23.6348 24.2482L24.3087 28.2196L21.9424 28.5828L21.2685 24.6113L19.1806 24.9318L19.8545 28.9032L17.349 29.2877L16.6751 25.3163L8.18422 26.6195L16.764 15.3193L20.0351 14.8173L13.5565 23.35L25.6664 21.4915L24.1307 20.4368L27.7497 19.8814L32.1953 22.9343L23.6348 24.2482Z" fill="url(#paint0_radial_1859_12)"/>
<path fill-rule="evenodd" clip-rule="evenodd" d="M22.6406 0.710503C23.2417 0.587682 23.8682 0.747334 24.3242 1.13952L37.1806 12.1975C37.7125 12.6551 37.9304 13.3573 37.7448 14.0162L33.7515 28.1896C33.5659 28.8485 33.008 29.353 32.3068 29.4963L15.3592 32.9593C14.7582 33.0822 14.1317 32.9225 13.6757 32.5303L0.819282 21.4723C0.287337 21.0148 0.0694963 20.3125 0.255128 19.6536L4.24836 5.48025C4.43399 4.82138 4.99185 4.3168 5.69307 4.17351L22.6406 0.710503ZM14.1952 10.2806L5.63475 11.5944L10.0803 14.6474L13.6994 14.092L12.1636 13.0373L24.2736 11.1787L17.795 19.7115L21.066 19.2094L29.6458 7.90929L21.155 9.21244L20.4811 5.24102L17.9756 5.62556L18.6495 9.59697L16.5615 9.91742L15.8877 5.946L13.5213 6.30918L14.1952 10.2806ZM23.6348 24.2482L24.3087 28.2196L21.9424 28.5828L21.2685 24.6113L19.1806 24.9318L19.8545 28.9032L17.349 29.2877L16.6751 25.3163L8.18422 26.6195L16.764 15.3193L20.0351 14.8173L13.5565 23.35L25.6664 21.4915L24.1307 20.4368L27.7497 19.8814L32.1953 22.9343L23.6348 24.2482Z" fill="white"/>
</g>
</g>
<defs>
<radialGradient id="paint0_radial_1859_12" cx="0" cy="0" r="1" gradientUnits="userSpaceOnUse" gradientTransform="translate(18.8493 16.8489) rotate(102.171) scale(18.1307 18.7771)">
<stop stop-color="#335584"/>
<stop offset="1" stop-color="#11243E"/>
</radialGradient>
</defs>
</svg>
